<svg xmlns="http://www.w3.org/2000/svg" xmlns:xlink="http://www.w3.org/1999/xlink" width="1920" zoomAndPan="magnify" viewBox="0 0 1440 809.999993" height="1080" preserveAspectRatio="xMidYMid meet" version="1.0"><defs><g/><clipPath id="584fdfba02"><path d="M 729 336 L 1221 336 L 1221 427.050781 L 729 427.050781 Z M 729 336 " clip-rule="nonzero"/></clipPath><clipPath id="bd44aea448"><path d="M 794 149 L 1225 149 L 1225 427.050781 L 794 427.050781 Z M 794 149 " clip-rule="nonzero"/></clipPath><clipPath id="681eff2509"><path d="M 354.328125 215.289062 L 868.675781 215.289062 L 868.675781 427.050781 L 354.328125 427.050781 Z M 354.328125 215.289062 " clip-rule="nonzero"/></clipPath><clipPath id="e8ae60b09e"><path d="M 321 110 L 849 110 L 849 427.050781 L 321 427.050781 Z M 321 110 " clip-rule="nonzero"/></clipPath><clipPath id="f3da066be6"><path d="M 418 426 L 433 426 L 433 427.050781 L 418 427.050781 Z M 418 426 " clip-rule="nonzero"/></clipPath><clipPath id="eebfc6265e"><path d="M 539 425 L 548 425 L 548 427.050781 L 539 427.050781 Z M 539 425 " clip-rule="nonzero"/></clipPath></defs><g clip-path="url(#584fdfba02)"><path fill="#4e102f" d="M 1220.675781 353.957031 L 1220.675781 354.328125 C 1220.675781 387.035156 1213.046875 416.613281 1197.996094 442.242188 C 1183.828125 466.367188 1163.101562 487.003906 1136.382812 503.582031 C 1086.789062 534.351562 1017.671875 550.613281 936.492188 550.613281 C 858.15625 550.613281 791.203125 536.089844 742.855469 508.617188 C 738.378906 506.070312 734.054688 503.414062 729.882812 500.644531 C 733.445312 498.277344 736.9375 495.890625 740.375 493.484375 C 743.0625 495.179688 745.8125 496.832031 748.640625 498.4375 C 795.222656 524.914062 860.179688 538.90625 936.492188 538.90625 C 1015.488281 538.90625 1082.472656 523.25 1130.207031 493.636719 C 1182.472656 461.203125 1208.96875 414.335938 1208.96875 354.328125 L 1208.96875 354.28125 C 1211.117188 352.128906 1212.933594 349.792969 1214.503906 347.210938 C 1216.269531 344.3125 1217.847656 341.261719 1219.304688 337.894531 C 1219.503906 337.441406 1219.695312 336.984375 1219.882812 336.53125 C 1220.097656 338.933594 1220.320312 341.554688 1220.460938 344.25 L 1220.46875 344.503906 C 1220.570312 347.5625 1220.675781 350.722656 1220.675781 353.957031 " fill-opacity="1" fill-rule="nonzero"/></g><path fill="#4e102f" d="M 927.824219 278.199219 C 905.644531 278.832031 885.007812 282.832031 868.011719 289.503906 C 868.242188 293.714844 868.296875 297.9375 868.179688 302.15625 C 884.625 294.96875 905.722656 290.535156 928.214844 289.90625 L 928.34375 289.898438 C 932.546875 289.691406 936.382812 289.691406 940.582031 289.898438 L 940.703125 289.90625 C 972.425781 290.816406 1001.59375 299.355469 1018.570312 312.484375 C 1020.15625 311.269531 1021.617188 310.015625 1022.964844 308.730469 C 1023.503906 308.042969 1024.148438 307.425781 1024.808594 306.796875 C 1025.351562 306.277344 1026.277344 305.398438 1027.214844 304.398438 C 1008.296875 288.945312 976.554688 279.230469 941.097656 278.199219 C 936.558594 277.980469 932.378906 277.980469 927.824219 278.199219 " fill-opacity="1" fill-rule="nonzero"/><g clip-path="url(#bd44aea448)"><path fill="#4e102f" d="M 1219.882812 336.53125 C 1219.695312 336.984375 1219.503906 337.441406 1219.304688 337.894531 C 1217.847656 341.261719 1216.269531 344.3125 1214.503906 347.210938 C 1212.933594 349.792969 1211.117188 352.128906 1208.96875 354.28125 C 1207.09375 356.175781 1204.96875 357.921875 1202.542969 359.597656 C 1199.507812 362.519531 1196.03125 365.238281 1192.1875 367.675781 C 1184.125 372.914062 1178.15625 377.328125 1173.03125 381.871094 C 1172.277344 383.285156 1171.644531 384.746094 1171.109375 386.328125 C 1169.945312 389.910156 1169.125 393.375 1168.328125 396.734375 C 1165.761719 407.613281 1163.101562 418.859375 1148.941406 426.664062 C 1143.464844 429.683594 1137.515625 429.9375 1132.261719 430.164062 C 1129.09375 430.300781 1126.101562 430.429688 1123.609375 431.125 C 1114.4375 433.671875 1105.816406 437.757812 1095.636719 444.382812 C 1091.921875 446.796875 1088.273438 449.449219 1084.40625 452.257812 C 1072.523438 460.882812 1060.242188 469.800781 1045.003906 472.429688 C 1039.546875 473.363281 1034.171875 473.761719 1028.863281 473.761719 C 1012.734375 473.761719 997.261719 470.085938 982.179688 466.496094 C 973.996094 464.550781 965.523438 462.539062 957.277344 461.226562 C 941.039062 458.632812 928.335938 459.167969 916.074219 462.957031 C 899.066406 468.246094 884.15625 470.613281 870.273438 470.613281 C 845.980469 470.613281 824.828125 463.375 801 451.914062 C 799.992188 451.425781 798.976562 450.921875 797.933594 450.414062 C 796.820312 449.867188 795.691406 449.3125 794.550781 448.761719 C 797.519531 445.847656 800.398438 442.910156 803.195312 439.953125 C 804.179688 440.4375 805.140625 440.910156 806.082031 441.363281 C 847.171875 461.125 874.054688 463.757812 912.609375 451.777344 C 920.902344 449.214844 929.511719 447.9375 938.90625 447.9375 C 945.242188 447.9375 951.929688 448.515625 959.121094 449.664062 C 967.796875 451.046875 976.488281 453.105469 984.890625 455.101562 C 1004.664062 459.804688 1023.339844 464.242188 1043.023438 460.894531 C 1055.5625 458.726562 1066.726562 450.625 1077.523438 442.785156 C 1081.339844 440.011719 1085.285156 437.144531 1089.253906 434.566406 C 1100.324219 427.359375 1110.242188 422.683594 1120.464844 419.847656 C 1124.246094 418.789062 1128.066406 418.625 1131.753906 418.46875 C 1136.105469 418.28125 1140.207031 418.105469 1143.277344 416.410156 C 1154.394531 410.289062 1156.316406 397.960938 1159.972656 386.980469 C 1164.824219 372.394531 1173.300781 365.976562 1185.859375 357.832031 C 1189.21875 355.691406 1192.183594 353.363281 1194.71875 350.875 L 1195.101562 350.5 L 1195.542969 350.195312 C 1199.523438 347.507812 1202.367188 344.628906 1204.492188 341.121094 C 1205.757812 339.0625 1206.898438 336.914062 1207.96875 334.566406 C 1208.167969 334.125 1208.367188 333.679688 1208.566406 333.222656 C 1216.996094 313.886719 1213.359375 295.445312 1196.398438 271.550781 L 1196.207031 271.28125 L 1196.050781 270.988281 C 1183.835938 248.847656 1161.574219 226.742188 1134.980469 210.34375 C 1121.113281 201.785156 1105.507812 194.230469 1088.574219 187.882812 C 1060.785156 177.421875 1028.820312 169.898438 993.570312 165.511719 C 977.570312 163.523438 960.671875 162.171875 943.332031 161.496094 C 909.316406 160.15625 872.664062 164.945312 828.582031 176.523438 C 826.902344 174.242188 825.121094 172 823.234375 169.804688 C 822.3125 168.722656 821.363281 167.65625 820.382812 166.601562 C 867.960938 153.699219 907.257812 148.355469 943.789062 149.792969 C 961.457031 150.480469 978.695312 151.863281 995.015625 153.894531 C 1031.183594 158.394531 1064.042969 166.140625 1092.691406 176.921875 C 1110.328125 183.53125 1126.625 191.429688 1141.121094 200.382812 C 1157.679688 210.585938 1188.105469 232.539062 1206.132812 265.046875 C 1218.917969 283.125 1231.835938 307.46875 1219.882812 336.53125 " fill-opacity="1" fill-rule="nonzero"/></g><path fill="#4e102f" d="M 1041.648438 302.960938 C 1040.648438 306.628906 1038.113281 309.902344 1035.789062 312.382812 L 1035.886719 312.476562 L 1035.855469 312.507812 L 1031.65625 316.617188 C 1031.519531 316.742188 1031.386719 316.878906 1031.253906 317.007812 C 1031.121094 317.132812 1030.996094 317.253906 1030.871094 317.371094 C 1030.707031 317.523438 1030.550781 317.671875 1030.394531 317.816406 C 1030.085938 318.097656 1029.785156 318.378906 1029.464844 318.652344 C 1029.21875 318.882812 1028.957031 319.101562 1028.699219 319.328125 C 1028.617188 319.398438 1028.539062 319.46875 1028.453125 319.539062 C 1028.21875 319.742188 1027.976562 319.941406 1027.738281 320.140625 C 1027.4375 320.390625 1027.136719 320.636719 1026.835938 320.878906 C 1026.472656 321.171875 1026.105469 321.457031 1025.730469 321.746094 C 1025.535156 321.894531 1025.339844 322.046875 1025.140625 322.195312 C 1024.972656 322.324219 1024.804688 322.445312 1024.628906 322.574219 C 1024.261719 322.851562 1023.890625 323.121094 1023.507812 323.394531 C 1023.128906 323.664062 1022.738281 323.933594 1022.351562 324.203125 C 1022.003906 324.445312 1021.648438 324.6875 1021.28125 324.929688 C 1010.125 332.351562 995.488281 338.3125 978.773438 342.125 C 964.804688 345.300781 949.90625 346.910156 934.480469 346.910156 C 920.15625 346.910156 906.253906 345.507812 893.160156 342.726562 C 882.648438 340.570312 872.925781 337.558594 864.167969 333.722656 C 865.058594 329.824219 865.796875 325.917969 866.386719 322.011719 C 884.566406 330.4375 908.652344 335.226562 934.460938 335.226562 C 939.773438 335.226562 945.042969 335.007812 950.210938 334.59375 C 950.917969 334.542969 951.621094 334.484375 952.320312 334.417969 C 952.875 334.371094 953.421875 334.320312 953.964844 334.261719 C 954.597656 334.203125 955.230469 334.140625 955.863281 334.0625 C 962.828125 333.324219 969.609375 332.199219 976.167969 330.703125 C 986.097656 328.441406 995.140625 325.410156 1002.984375 321.75 C 1003.453125 321.539062 1003.910156 321.316406 1004.375 321.089844 C 1005.296875 320.648438 1006.199219 320.199219 1007.078125 319.734375 C 1007.410156 319.570312 1007.726562 319.402344 1008.054688 319.226562 C 1008.511719 318.988281 1008.96875 318.734375 1009.421875 318.476562 C 1009.667969 318.34375 1009.917969 318.210938 1010.164062 318.0625 C 1010.5 317.867188 1010.835938 317.675781 1011.175781 317.46875 C 1011.503906 317.277344 1011.84375 317.078125 1012.160156 316.878906 C 1012.445312 316.710938 1012.722656 316.539062 1013 316.363281 C 1013.417969 316.101562 1013.835938 315.832031 1014.246094 315.5625 C 1014.488281 315.40625 1014.726562 315.246094 1014.96875 315.082031 C 1014.992188 315.070312 1015.011719 315.058594 1015.027344 315.042969 C 1015.339844 314.835938 1015.644531 314.625 1015.945312 314.414062 C 1016.636719 313.941406 1017.304688 313.449219 1017.960938 312.957031 C 1018.070312 312.878906 1018.167969 312.796875 1018.269531 312.722656 C 1018.371094 312.648438 1018.472656 312.570312 1018.578125 312.488281 L 1018.570312 312.484375 C 1020.15625 311.269531 1021.617188 310.015625 1022.964844 308.730469 C 1023.503906 308.042969 1024.148438 307.425781 1024.808594 306.796875 C 1025.351562 306.277344 1026.277344 305.398438 1027.214844 304.398438 C 1028.585938 302.9375 1029.996094 301.203125 1030.351562 299.894531 C 1033.429688 288.457031 1030.492188 269.503906 1026.300781 266.09375 C 1026.0625 266 1024.449219 265.550781 1019.347656 266.996094 C 1012.832031 269.015625 1006.175781 270.679688 999.5625 271.925781 C 989.8125 274.015625 977.898438 272.28125 969.875 267.617188 C 969.167969 267.207031 968.15625 266.515625 966.628906 265.46875 C 951.371094 255.03125 940.863281 250.175781 935.394531 251.035156 C 929.3125 252.003906 923.324219 256.175781 916.980469 260.589844 C 908.097656 266.769531 898.050781 273.773438 885.410156 272.992188 C 883.148438 272.84375 879.804688 272.089844 874.089844 270.761719 C 871.34375 270.125 868.417969 269.449219 865.566406 268.847656 C 864.800781 264.683594 863.863281 260.527344 862.757812 256.382812 C 867.3125 257.167969 872.257812 258.316406 876.738281 259.359375 C 880.496094 260.226562 884.75 261.21875 886.148438 261.304688 C 894.6875 261.832031 902.265625 256.5625 910.289062 250.980469 C 917.4375 246.007812 924.832031 240.863281 933.558594 239.476562 C 944.882812 237.683594 959.972656 246.722656 973.234375 255.800781 C 974.253906 256.5 975.410156 257.289062 975.753906 257.488281 C 981.28125 260.707031 990.28125 261.953125 997.164062 260.46875 L 997.316406 260.433594 C 1003.539062 259.261719 1009.804688 257.699219 1015.945312 255.789062 L 1016.074219 255.75 C 1021.546875 254.199219 1028.464844 252.910156 1033.464844 256.824219 C 1044.027344 265.074219 1044.769531 291.382812 1041.648438 302.960938 " fill-opacity="1" fill-rule="nonzero"/><g clip-path="url(#681eff2509)"><path fill="#4e102f" d="M 868.179688 302.15625 C 868.101562 304.929688 867.957031 307.699219 867.734375 310.476562 C 867.429688 314.28125 866.988281 318.085938 866.40625 321.882812 C 866.40625 321.929688 866.398438 321.972656 866.386719 322.011719 C 865.796875 325.917969 865.058594 329.824219 864.167969 333.722656 C 864.167969 333.746094 864.164062 333.769531 864.15625 333.792969 L 864.15625 333.796875 C 860.429688 350.253906 854.152344 366.65625 845.382812 382.851562 C 843.996094 385.40625 842.546875 387.957031 841.042969 390.5 C 839.726562 392.726562 838.355469 394.949219 836.945312 397.164062 C 827.636719 411.757812 816.339844 426.066406 803.195312 439.953125 C 800.398438 442.910156 797.519531 445.847656 794.550781 448.761719 C 778.757812 464.320312 760.621094 479.285156 740.375 493.484375 C 736.9375 495.890625 733.445312 498.277344 729.882812 500.644531 C 718.113281 508.464844 705.679688 516.039062 692.628906 523.316406 C 625.253906 560.90625 560.539062 580.847656 505.480469 580.980469 L 504.90625 580.980469 C 475.101562 580.980469 447.980469 575.226562 424.296875 563.867188 C 398.945312 551.714844 377.34375 533.0625 360.085938 508.417969 C 357.992188 505.429688 356.28125 502.875 354.71875 500.367188 C 354.714844 500.355469 354.699219 500.335938 354.6875 500.324219 C 358.628906 501.902344 362.457031 500.058594 367.023438 499.457031 C 368.933594 501.261719 371.4375 505.324219 373.441406 506.871094 C 404.664062 548.289062 448.863281 569.273438 504.894531 569.273438 L 505.453125 569.273438 C 558.53125 569.136719 621.285156 549.714844 686.921875 513.089844 C 698.320312 506.730469 709.230469 500.152344 719.625 493.371094 C 719.632812 493.371094 719.632812 493.371094 719.632812 493.371094 C 723.128906 491.089844 726.570312 488.789062 729.949219 486.464844 C 749.683594 472.910156 767.394531 458.628906 782.871094 443.796875 C 786.007812 440.796875 789.054688 437.769531 791.996094 434.722656 C 804.449219 421.886719 815.234375 408.671875 824.222656 395.222656 C 826.601562 391.671875 828.847656 388.113281 830.96875 384.539062 C 831.792969 383.140625 832.597656 381.75 833.378906 380.363281 C 843.128906 363.074219 849.8125 345.761719 853.433594 328.476562 C 853.4375 328.449219 853.445312 328.425781 853.445312 328.402344 C 854.304688 324.289062 854.988281 320.179688 855.503906 316.074219 C 855.503906 316.042969 855.507812 316.019531 855.507812 315.988281 C 855.824219 313.441406 856.078125 310.898438 856.257812 308.347656 C 856.585938 303.789062 856.699219 299.234375 856.589844 294.683594 C 856.394531 285.472656 855.3125 276.269531 853.34375 267.09375 C 852.53125 263.269531 851.550781 259.445312 850.425781 255.625 C 849.566406 252.695312 848.613281 249.765625 847.5625 246.839844 C 848.828125 239.820312 848.972656 232.589844 848.015625 225.066406 C 847.609375 221.882812 847.066406 218.738281 846.382812 215.644531 C 848.238281 219.066406 849.988281 222.539062 851.605469 225.988281 C 856.324219 236.019531 860.046875 246.160156 862.757812 256.382812 C 863.863281 260.527344 864.800781 264.683594 865.566406 268.847656 C 866.835938 275.714844 867.652344 282.597656 868.011719 289.503906 C 868.242188 293.714844 868.296875 297.9375 868.179688 302.15625 " fill-opacity="1" fill-rule="nonzero"/></g><path fill="#4e102f" d="M 657.539062 261.964844 C 657.375 263.035156 657.121094 264.085938 656.792969 265.117188 C 654.925781 271.039062 650.535156 276.292969 645.429688 281.261719 L 645.425781 281.269531 C 643.128906 283.5 640.703125 285.667969 638.285156 287.824219 C 635.191406 290.582031 631.996094 293.433594 629.226562 296.320312 C 615.371094 310.738281 602.75 321.609375 589.511719 330.539062 C 569.023438 344.355469 537.761719 352.589844 503.191406 353.363281 C 501.699219 353.398438 500.195312 353.417969 498.691406 353.421875 L 498.554688 353.421875 C 495.734375 353.421875 493.117188 353.09375 490.699219 352.421875 C 481.226562 349.792969 474.71875 341.902344 470.167969 327.808594 C 471.972656 320.167969 476.8125 313.023438 482.054688 306.378906 C 507.265625 301.597656 520.480469 286.46875 534.492188 262.207031 C 539.207031 254.050781 547.707031 245.667969 561.414062 252.066406 C 564.890625 253.695312 569.582031 255.667969 575.035156 256.476562 C 587.023438 258.25 596.9375 255.753906 608.175781 248.144531 C 611.558594 245.851562 614.605469 243.117188 617.542969 240.46875 C 622.359375 236.132812 626.914062 232.035156 631.46875 231.382812 C 632.339844 231.402344 633.238281 231.402344 634.136719 231.382812 C 636.253906 231.695312 638.464844 232.65625 640.886719 234.328125 C 641.835938 234.984375 643.359375 235.828125 647.347656 237.191406 C 648.042969 238.222656 648.746094 239.234375 649.429688 240.226562 C 654.457031 247.457031 658.804688 253.703125 657.539062 261.964844 Z M 668.835938 252.921875 C 667.257812 245.359375 662.964844 239.1875 659.042969 233.539062 C 657.976562 232.003906 656.972656 230.558594 656.003906 229.078125 L 654.871094 227.332031 L 652.890625 226.695312 C 648.644531 225.339844 647.597656 224.730469 647.539062 224.695312 C 643.359375 221.808594 639.285156 220.175781 635.09375 219.707031 L 634.699219 219.664062 L 634.308594 219.671875 C 633.300781 219.695312 632.304688 219.695312 631.355469 219.664062 L 630.960938 219.652344 L 630.566406 219.699219 C 622.125 220.589844 615.816406 226.273438 609.707031 231.765625 C 606.941406 234.257812 604.332031 236.613281 601.605469 238.453125 C 592.902344 244.351562 585.695312 246.214844 576.75 244.890625 C 573.671875 244.433594 570.464844 243.375 566.367188 241.457031 C 558.039062 237.570312 549.644531 237.074219 542.089844 240.019531 C 535.085938 242.742188 528.957031 248.390625 524.355469 256.351562 C 509.402344 282.234375 497.6875 292.039062 477.929688 295.210938 L 475.710938 295.566406 L 474.300781 297.316406 C 467.277344 306.03125 460.484375 315.660156 458.367188 327.03125 L 458.109375 328.441406 L 458.523438 329.8125 C 461.738281 340.332031 465.980469 348.246094 471.507812 354.011719 C 475.878906 358.574219 481.023438 361.742188 486.886719 363.496094 C 490.511719 364.585938 494.410156 365.128906 498.5625 365.128906 L 498.730469 365.128906 C 516.996094 365.066406 563.046875 362.507812 596.058594 340.246094 C 610.003906 330.839844 623.222656 319.460938 637.667969 304.433594 C 640.128906 301.871094 643.019531 299.285156 646.082031 296.558594 C 647.117188 295.636719 648.164062 294.699219 649.214844 293.75 C 651.113281 292.023438 653.019531 290.246094 654.863281 288.394531 C 661.652344 281.574219 667.589844 273.714844 669.113281 263.734375 C 669.707031 259.8125 669.535156 256.234375 668.835938 252.921875 " fill-opacity="1" fill-rule="nonzero"/><path fill="#4e102f" d="M 656.792969 265.117188 C 654.925781 271.039062 650.535156 276.292969 645.429688 281.261719 C 646.507812 279.285156 647.46875 277.316406 648.300781 275.375 C 627.074219 272.183594 597.4375 278.925781 569.285156 293.585938 L 569.179688 293.636719 C 567.277344 294.582031 565.511719 295.511719 563.757812 296.488281 C 562.007812 297.46875 560.28125 298.484375 558.484375 299.605469 L 558.386719 299.667969 C 532.824219 314.890625 512.640625 334.71875 503.191406 353.363281 C 501.699219 353.398438 500.195312 353.417969 498.691406 353.421875 L 498.554688 353.421875 C 495.734375 353.421875 493.117188 353.09375 490.699219 352.421875 C 500.246094 330.296875 522.675781 307.3125 552.339844 289.636719 C 554.28125 288.429688 556.15625 287.328125 558.050781 286.261719 C 559.953125 285.203125 561.875 284.195312 563.929688 283.175781 C 597.269531 265.824219 631.699219 259.027344 656.089844 264.976562 C 656.300781 265.019531 656.539062 265.066406 656.792969 265.117188 " fill-opacity="1" fill-rule="nonzero"/><g clip-path="url(#e8ae60b09e)"><path fill="#4e102f" d="M 803.542969 294.585938 L 802.808594 295.316406 L 802.375 296.253906 C 801.089844 299.019531 799.738281 301.835938 798.425781 304.558594 C 795.832031 309.9375 793.152344 315.5 790.84375 321 C 784.492188 336.132812 778.101562 348.699219 769.480469 359.058594 C 765.484375 363.863281 761.003906 368.199219 755.824219 372.097656 C 753.910156 373.535156 751.902344 374.914062 749.78125 376.234375 C 744.464844 379.558594 737.863281 380.691406 730.867188 381.890625 C 723.484375 383.160156 715.851562 384.46875 709.027344 388.5 C 703.546875 391.738281 698.75 395.566406 694.367188 399.707031 C 691.433594 402.46875 688.6875 405.371094 686.046875 408.328125 C 683.453125 411.226562 680.96875 414.175781 678.503906 417.097656 L 677.691406 418.058594 C 677.183594 418.660156 676.675781 419.261719 676.167969 419.867188 C 673.386719 423.164062 670.582031 426.464844 667.71875 429.695312 C 655.136719 443.921875 641.457031 456.871094 623.824219 462.371094 C 614.988281 465.128906 604.316406 465.59375 593.015625 466.085938 C 575.414062 466.847656 557.21875 467.644531 543.636719 477.488281 C 536.410156 482.726562 529.910156 489.476562 523.628906 496.007812 C 512.925781 507.121094 502.816406 517.621094 489.503906 521.320312 C 469.65625 526.828125 449.4375 521.09375 431.523438 512.476562 C 411.667969 502.917969 392.269531 510.351562 374.933594 492.5 C 373.835938 491.371094 372.707031 490.140625 371.1875 489.695312 C 362.925781 487.28125 356.960938 492.636719 351.519531 482.140625 C 328.707031 438.121094 326.910156 386.113281 346.449219 335.703125 C 357.90625 306.160156 375.53125 280.304688 395.199219 258.285156 C 427.027344 222.652344 464.203125 197.058594 489.195312 182.125 C 543.679688 149.589844 624.988281 113.117188 702.910156 124.175781 C 703.597656 124.277344 704.292969 124.375 704.992188 124.480469 C 742.109375 130.066406 781.625 144.617188 807.6875 170.183594 C 808.628906 171.105469 809.554688 172.039062 810.457031 172.992188 C 812.550781 175.203125 814.554688 177.480469 816.441406 179.84375 C 817.28125 180.890625 818.101562 181.957031 818.898438 183.035156 C 826.777344 193.714844 832.503906 205.925781 835.289062 219.765625 C 835.738281 221.984375 836.109375 224.242188 836.402344 226.542969 C 840.078125 255.441406 824.40625 273.710938 803.542969 294.585938 Z M 848.015625 225.066406 C 847.609375 221.882812 847.066406 218.738281 846.382812 215.644531 C 843.589844 202.960938 838.476562 191.066406 831.132812 180.15625 C 830.792969 179.652344 830.449219 179.148438 830.097656 178.644531 C 829.597656 177.9375 829.097656 177.230469 828.582031 176.523438 C 826.902344 174.242188 825.121094 172 823.234375 169.804688 C 822.3125 168.722656 821.363281 167.65625 820.382812 166.601562 C 813.253906 158.84375 804.820312 151.714844 795.195312 145.296875 C 770.804688 129.035156 738.621094 117.414062 704.554688 112.585938 C 669.464844 107.609375 630.535156 111.507812 588.835938 124.183594 C 554.453125 134.632812 518.90625 150.75 483.195312 172.078125 C 441.464844 196.996094 366.789062 250.84375 335.535156 331.46875 C 325.40625 357.59375 320.605469 384.039062 321.261719 410.078125 C 321.945312 437.359375 328.632812 463.414062 341.125 487.535156 C 344.320312 493.695312 349.066406 498.066406 354.6875 500.324219 C 358.820312 501.988281 363.617188 500.714844 367.445312 502.183594 C 372.175781 504.003906 376.546875 509.175781 381.148438 511.691406 C 395.382812 519.476562 410.308594 518.570312 425.417969 522.703125 C 441.355469 527.066406 456.246094 535.183594 473.15625 535.183594 C 479.597656 535.183594 486.140625 534.402344 492.636719 532.601562 C 509.035156 528.046875 520.742188 515.886719 532.058594 504.125 C 538.265625 497.6875 544.117188 491.597656 550.511719 486.96875 C 561.25 479.1875 577.65625 478.472656 593.523438 477.78125 C 605.074219 477.28125 617.019531 476.757812 627.3125 473.550781 C 646.070312 467.695312 660.6875 454.765625 673.367188 440.90625 C 676.203125 437.816406 678.929688 434.675781 681.585938 431.570312 C 683.300781 429.558594 684.984375 427.570312 686.640625 425.601562 L 687.453125 424.644531 C 689.167969 422.613281 690.859375 420.609375 692.558594 418.648438 C 695.253906 415.535156 697.972656 412.53125 700.835938 409.714844 C 705.117188 405.5 709.695312 401.699219 714.972656 398.585938 C 719.957031 395.648438 726.21875 394.570312 732.847656 393.433594 C 740.648438 392.09375 748.71875 390.707031 755.988281 386.164062 C 760.023438 383.644531 763.699219 380.964844 767.085938 378.101562 C 772.070312 373.90625 776.417969 369.328125 780.335938 364.328125 C 788.835938 353.484375 795.28125 340.675781 801.636719 325.53125 C 803.828125 320.304688 806.328125 315.121094 808.976562 309.636719 C 810.148438 307.183594 811.367188 304.65625 812.550781 302.136719 C 818.609375 296.0625 824.769531 289.667969 830.230469 282.75 C 833.5625 278.527344 836.628906 274.117188 839.257812 269.449219 C 841.347656 265.742188 843.085938 262 844.46875 258.210938 C 845.84375 254.472656 846.871094 250.6875 847.5625 246.839844 C 848.828125 239.820312 848.972656 232.589844 848.015625 225.066406 " fill-opacity="1" fill-rule="nonzero"/></g><path fill="#4e102f" d="M 384.152344 376.199219 C 379.535156 381.035156 386.105469 389.570312 391.773438 385.460938 C 391.808594 385.4375 391.832031 385.398438 391.863281 385.371094 C 393.808594 385.378906 395.75 384.148438 395.820312 381.621094 C 395.996094 375.433594 388.78125 371.351562 384.152344 376.199219 " fill-opacity="1" fill-rule="nonzero"/><path fill="#4e102f" d="M 483.816406 227.035156 C 479.117188 229.65625 483.183594 236.945312 487.878906 234.324219 C 492.578125 231.703125 488.515625 224.414062 483.816406 227.035156 " fill-opacity="1" fill-rule="nonzero"/><path fill="#4e102f" d="M 643.472656 155.148438 C 637.125 158.691406 642.613281 168.527344 648.957031 164.988281 C 655.304688 161.445312 649.8125 151.609375 643.472656 155.148438 " fill-opacity="1" fill-rule="nonzero"/><path fill="#4e102f" d="M 671.355469 329.886719 C 665.4375 333.1875 670.558594 342.363281 676.472656 339.0625 C 682.390625 335.761719 677.273438 326.585938 671.355469 329.886719 " fill-opacity="1" fill-rule="nonzero"/><path fill="#4e102f" d="M 759.4375 273.269531 C 759.3125 273.351562 759.1875 273.429688 759.0625 273.511719 C 757.125 274.753906 757.257812 277.8125 759.644531 278.488281 C 762.027344 279.164062 763.742188 276.636719 762.75 274.558594 C 762.6875 274.425781 762.621094 274.289062 762.558594 274.15625 C 762.042969 273.074219 760.441406 272.625 759.4375 273.269531 " fill-opacity="1" fill-rule="nonzero"/><path fill="#4e102f" d="M 426.289062 271.902344 C 421.121094 274.785156 425.59375 282.800781 430.761719 279.914062 C 435.929688 277.03125 431.460938 269.015625 426.289062 271.902344 " fill-opacity="1" fill-rule="nonzero"/><path fill="#4e102f" d="M 426.746094 374.933594 C 419.929688 378.734375 425.824219 389.300781 432.636719 385.5 C 439.453125 381.699219 433.558594 371.132812 426.746094 374.933594 " fill-opacity="1" fill-rule="nonzero"/><path fill="#4e102f" d="M 576.398438 399.605469 C 573.574219 401.179688 576.015625 405.550781 578.835938 403.980469 C 581.65625 402.40625 579.214844 398.035156 576.398438 399.605469 " fill-opacity="1" fill-rule="nonzero"/><path fill="#4e102f" d="M 562.457031 188.054688 C 557.054688 191.066406 561.726562 199.445312 567.132812 196.433594 C 572.535156 193.417969 567.859375 185.035156 562.457031 188.054688 " fill-opacity="1" fill-rule="nonzero"/><path fill="#4e102f" d="M 740.78125 219.222656 C 736.121094 221.824219 740.152344 229.054688 744.8125 226.453125 C 749.476562 223.851562 745.445312 216.625 740.78125 219.222656 " fill-opacity="1" fill-rule="nonzero"/><path fill="#4e102f" d="M 730.796875 164.617188 C 723.042969 168.945312 729.753906 180.96875 737.507812 176.644531 C 745.257812 172.316406 738.550781 160.292969 730.796875 164.617188 " fill-opacity="1" fill-rule="nonzero"/><path fill="#4e102f" d="M 392.289062 313.257812 C 387.589844 315.878906 391.65625 323.167969 396.355469 320.546875 C 401.054688 317.925781 396.992188 310.636719 392.289062 313.257812 " fill-opacity="1" fill-rule="nonzero"/><g clip-path="url(#f3da066be6)"><path fill="#4e102f" d="M 427.855469 426.988281 C 426.132812 426.582031 424.75 426.414062 423.09375 427.285156 C 419.453125 429.203125 417.605469 433.457031 419.730469 437.265625 C 421.976562 441.292969 427.609375 442.101562 430.898438 438.863281 C 434.570312 435.25 433.125 428.222656 427.855469 426.988281 " fill-opacity="1" fill-rule="nonzero"/></g><path fill="#4e102f" d="M 483.113281 392.761719 C 482.921875 392.605469 482.734375 392.453125 482.542969 392.300781 C 480.113281 390.339844 477.21875 390.085938 474.773438 392.246094 L 474.261719 392.695312 C 470.105469 396.359375 473.332031 403.300781 478.527344 403.410156 C 483.566406 403.519531 487.578125 396.367188 483.113281 392.761719 " fill-opacity="1" fill-rule="nonzero"/><path fill="#4e102f" d="M 664.015625 387.804688 C 663.601562 387.734375 663.183594 387.660156 662.769531 387.585938 C 660.058594 387.117188 658.039062 388.242188 657.015625 390.796875 C 656.859375 391.1875 656.703125 391.582031 656.546875 391.972656 C 654.503906 397.070312 661.050781 401.285156 665.3125 398.90625 C 669.570312 396.527344 669.429688 388.746094 664.015625 387.804688 " fill-opacity="1" fill-rule="nonzero"/><path fill="#4e102f" d="M 534.414062 214.183594 C 528.839844 214.976562 528.960938 223.582031 534.214844 225.074219 C 537.710938 226.066406 541.308594 223.398438 541.382812 219.769531 C 541.46875 215.851562 537.960938 213.679688 534.414062 214.183594 " fill-opacity="1" fill-rule="nonzero"/><path fill="#4e102f" d="M 442.03125 228.867188 C 434.75 232.929688 441.046875 244.226562 448.332031 240.160156 C 455.617188 236.097656 449.3125 224.800781 442.03125 228.867188 " fill-opacity="1" fill-rule="nonzero"/><path fill="#4e102f" d="M 693.097656 276.984375 C 687.453125 280.125 692.332031 288.871094 697.972656 285.726562 C 703.613281 282.582031 698.734375 273.835938 693.097656 276.984375 " fill-opacity="1" fill-rule="nonzero"/><path fill="#4e102f" d="M 426.507812 322.945312 C 420.765625 326.148438 425.734375 335.050781 431.476562 331.847656 C 437.214844 328.644531 432.25 319.742188 426.507812 322.945312 " fill-opacity="1" fill-rule="nonzero"/><path fill="#4e102f" d="M 474.132812 264.363281 C 465.203125 269.34375 472.925781 283.1875 481.855469 278.207031 C 490.785156 273.226562 483.058594 259.382812 474.132812 264.363281 " fill-opacity="1" fill-rule="nonzero"/><path fill="#4e102f" d="M 602.824219 212 C 596.011719 215.800781 601.90625 226.367188 608.71875 222.566406 C 615.535156 218.765625 609.636719 208.199219 602.824219 212 " fill-opacity="1" fill-rule="nonzero"/><path fill="#4e102f" d="M 510.40625 384.308594 C 504.070312 387.84375 509.550781 397.667969 515.886719 394.132812 C 522.21875 390.597656 516.742188 380.777344 510.40625 384.308594 " fill-opacity="1" fill-rule="nonzero"/><path fill="#4e102f" d="M 625.785156 369.9375 C 625.636719 369.925781 625.488281 369.910156 625.335938 369.894531 C 623.792969 369.75 621.890625 370.808594 621.203125 372.199219 C 621.136719 372.335938 621.070312 372.472656 621.003906 372.605469 C 618.703125 377.273438 623.359375 382.867188 628.320312 380.097656 C 633.28125 377.328125 630.96875 370.433594 625.785156 369.9375 " fill-opacity="1" fill-rule="nonzero"/><path fill="#4e102f" d="M 656.546875 192.746094 C 649.5 196.679688 655.597656 207.609375 662.644531 203.675781 C 669.695312 199.742188 663.597656 188.8125 656.546875 192.746094 " fill-opacity="1" fill-rule="nonzero"/><path fill="#4e102f" d="M 696.125 209.738281 C 690.488281 212.886719 695.367188 221.628906 701.003906 218.484375 C 706.644531 215.335938 701.765625 206.59375 696.125 209.738281 " fill-opacity="1" fill-rule="nonzero"/><path fill="#4e102f" d="M 732.988281 324.746094 C 728.054688 327.496094 732.324219 335.148438 737.261719 332.394531 C 742.195312 329.644531 737.921875 321.992188 732.988281 324.746094 " fill-opacity="1" fill-rule="nonzero"/><path fill="#4e102f" d="M 363.71875 351.558594 C 359.957031 353.65625 363.210938 359.484375 366.96875 357.386719 C 370.726562 355.289062 367.476562 349.460938 363.71875 351.558594 " fill-opacity="1" fill-rule="nonzero"/><path fill="#4e102f" d="M 570.738281 161.792969 C 565.097656 164.9375 569.976562 173.679688 575.613281 170.535156 C 581.253906 167.390625 576.375 158.644531 570.738281 161.792969 " fill-opacity="1" fill-rule="nonzero"/><path fill="#4e102f" d="M 503.914062 188.160156 C 497.570312 191.703125 503.058594 201.539062 509.402344 198 C 515.746094 194.460938 510.257812 184.621094 503.914062 188.160156 " fill-opacity="1" fill-rule="nonzero"/><g clip-path="url(#eebfc6265e)"><path fill="#4e102f" d="M 545.425781 426.898438 C 545.207031 426.757812 544.992188 426.617188 544.777344 426.476562 C 542.457031 424.976562 539.054688 426.871094 539.113281 429.636719 C 539.121094 429.894531 539.125 430.152344 539.132812 430.40625 C 539.199219 433.53125 542.488281 435.722656 545.335938 434.132812 C 548.183594 432.542969 548.046875 428.59375 545.425781 426.898438 " fill-opacity="1" fill-rule="nonzero"/></g><path fill="#4e102f" d="M 785.546875 202.949219 C 780.613281 205.699219 784.882812 213.351562 789.816406 210.597656 C 794.75 207.847656 790.480469 200.195312 785.546875 202.949219 " fill-opacity="1" fill-rule="nonzero"/><path fill="#4e102f" d="M 631.066406 179.472656 C 630.835938 179.808594 630.601562 180.140625 630.363281 180.472656 C 628.558594 183.035156 630.394531 186.734375 633.1875 187.527344 C 635.984375 188.320312 639.484375 186.136719 639.296875 183.007812 C 639.273438 182.601562 639.25 182.195312 639.222656 181.789062 C 638.953125 177.308594 633.652344 175.804688 631.066406 179.472656 " fill-opacity="1" fill-rule="nonzero"/><path fill="#4e102f" d="M 711.816406 253.941406 C 711.617188 253.878906 711.414062 253.816406 711.214844 253.753906 C 709.613281 253.253906 707.753906 254.292969 707.335938 255.917969 C 707.285156 256.121094 707.234375 256.324219 707.179688 256.53125 C 706.375 259.667969 709.707031 262.457031 712.621094 260.832031 C 715.535156 259.207031 714.914062 254.902344 711.816406 253.941406 " fill-opacity="1" fill-rule="nonzero"/><path fill="#4e102f" d="M 705.59375 175.160156 C 700.894531 177.78125 704.960938 185.070312 709.660156 182.449219 C 714.359375 179.824219 710.292969 172.539062 705.59375 175.160156 " fill-opacity="1" fill-rule="nonzero"/><path fill="#4e102f" d="M 570.652344 368.078125 C 563.371094 372.140625 569.671875 383.4375 576.957031 379.375 C 584.238281 375.308594 577.9375 364.015625 570.652344 368.078125 " fill-opacity="1" fill-rule="nonzero"/><g fill="#4e102f" fill-opacity="1"><g transform="translate(0.100797, 621.862559)"><g><path d="M 5.65625 -46.328125 L 19.765625 -46.328125 L 19.765625 -173.140625 L 5.65625 -173.140625 L 5.65625 -219.75 L 120.328125 -219.75 C 151.773438 -219.75 176.769531 -211.132812 195.3125 -193.90625 C 213.863281 -176.675781 223.140625 -148.664062 223.140625 -109.875 C 223.140625 -71.082031 213.863281 -43.070312 195.3125 -25.84375 C 176.769531 -8.613281 151.773438 0 120.328125 0 L 5.65625 0 Z M 115.234375 -46.328125 C 121.640625 -46.328125 126.441406 -48.019531 129.640625 -51.40625 C 132.847656 -54.789062 134.453125 -60.0625 134.453125 -67.21875 L 134.453125 -152.53125 C 134.453125 -166.457031 128.046875 -173.421875 115.234375 -173.421875 L 98.859375 -173.421875 L 98.859375 -46.328125 Z M 115.234375 -46.328125 "/></g></g></g><g fill="#4e102f" fill-opacity="1"><g transform="translate(245.49407, 621.862559)"><g><path d="M 111.84375 3.953125 C 77.382812 3.953125 50.785156 -5.082031 32.046875 -23.15625 C 13.316406 -41.238281 3.953125 -70.144531 3.953125 -109.875 C 3.953125 -149.601562 13.316406 -178.503906 32.046875 -196.578125 C 50.785156 -214.660156 77.382812 -223.703125 111.84375 -223.703125 C 146.3125 -223.703125 172.910156 -214.660156 191.640625 -196.578125 C 210.378906 -178.503906 219.75 -149.601562 219.75 -109.875 C 219.75 -70.144531 210.378906 -41.238281 191.640625 -23.15625 C 172.910156 -5.082031 146.3125 3.953125 111.84375 3.953125 Z M 111.84375 -46.328125 C 118.25 -46.328125 123.050781 -48.019531 126.25 -51.40625 C 129.457031 -54.789062 131.0625 -60.0625 131.0625 -67.21875 L 131.0625 -152.53125 C 131.0625 -159.6875 129.457031 -164.957031 126.25 -168.34375 C 123.050781 -171.726562 118.25 -173.421875 111.84375 -173.421875 C 105.445312 -173.421875 100.644531 -171.726562 97.4375 -168.34375 C 94.238281 -164.957031 92.640625 -159.6875 92.640625 -152.53125 L 92.640625 -67.21875 C 92.640625 -59.875 94.238281 -54.554688 97.4375 -51.265625 C 100.644531 -47.972656 105.445312 -46.328125 111.84375 -46.328125 Z M 111.84375 -46.328125 "/></g></g></g><g fill="#4e102f" fill-opacity="1"><g transform="translate(487.49874, 621.862559)"><g><path d="M 168.34375 -219.75 L 260.984375 -219.75 L 260.984375 -173.421875 L 246.859375 -173.421875 L 246.859375 0 L 167.5 0 L 84.734375 -127.390625 L 84.734375 -46.328125 L 98.296875 -46.328125 L 98.296875 0 L 5.65625 0 L 5.65625 -46.328125 L 19.765625 -46.328125 L 19.765625 -173.421875 L 5.65625 -173.421875 L 5.65625 -219.75 L 107.609375 -219.75 L 181.90625 -106.484375 L 181.90625 -173.421875 L 168.34375 -173.421875 Z M 168.34375 -219.75 "/></g></g></g><g fill="#4e102f" fill-opacity="1"><g transform="translate(771.85987, 621.862559)"><g><path d="M 111.28125 3.953125 C 81.71875 3.953125 58.882812 -2.539062 42.78125 -15.53125 C 26.6875 -28.53125 18.640625 -49.617188 18.640625 -78.796875 L 18.640625 -173.421875 L 4.515625 -173.421875 L 4.515625 -219.75 L 109.03125 -219.75 L 109.03125 -173.421875 L 97.734375 -173.421875 L 97.734375 -64.40625 C 97.734375 -58.1875 99.097656 -53.617188 101.828125 -50.703125 C 104.554688 -47.785156 108.648438 -46.328125 114.109375 -46.328125 C 119.566406 -46.328125 123.660156 -47.785156 126.390625 -50.703125 C 129.128906 -53.617188 130.5 -58.1875 130.5 -64.40625 L 130.5 -173.421875 L 119.1875 -173.421875 L 119.1875 -219.75 L 216.078125 -219.75 L 216.078125 -173.421875 L 201.953125 -173.421875 L 201.953125 -78.796875 C 201.953125 -49.617188 194.132812 -28.53125 178.5 -15.53125 C 162.875 -2.539062 140.46875 3.953125 111.28125 3.953125 Z M 111.28125 3.953125 "/></g></g></g><g fill="#4e102f" fill-opacity="1"><g transform="translate(1010.758425, 621.862559)"><g><path d="M 216.359375 -151.390625 L 167.78125 -151.390625 L 167.78125 -173.421875 L 149.703125 -173.421875 L 149.703125 -46.328125 L 169.46875 -46.328125 L 169.46875 0 L 50.84375 0 L 50.84375 -46.328125 L 70.609375 -46.328125 L 70.609375 -173.421875 L 52.53125 -173.421875 L 52.53125 -151.390625 L 3.953125 -151.390625 L 3.953125 -219.75 L 216.359375 -219.75 Z M 216.359375 -151.390625 "/></g></g></g><g fill="#4e102f" fill-opacity="1"><g transform="translate(1249.374669, 621.862559)"><g><path d="M 93.203125 3.953125 C 75.128906 3.953125 58.039062 2.398438 41.9375 -0.703125 C 25.84375 -3.804688 13.460938 -7.335938 4.796875 -11.296875 L 4.796875 -67.21875 L 66.9375 -67.21875 C 66.9375 -61.382812 68.253906 -57.148438 70.890625 -54.515625 C 73.523438 -51.878906 78.328125 -50.5625 85.296875 -50.5625 C 91.140625 -50.5625 95.332031 -51.453125 97.875 -53.234375 C 100.414062 -55.023438 101.6875 -57.710938 101.6875 -61.296875 C 101.6875 -64.304688 100.460938 -66.894531 98.015625 -69.0625 C 95.566406 -71.226562 91.328125 -73.441406 85.296875 -75.703125 L 61.015625 -84.171875 C 40.109375 -92.078125 25.085938 -101.394531 15.953125 -112.125 C 6.828125 -122.863281 2.265625 -137.363281 2.265625 -155.625 C 2.265625 -177.851562 9.5625 -194.753906 24.15625 -206.328125 C 38.75 -217.910156 63.082031 -223.703125 97.15625 -223.703125 C 113.539062 -223.703125 128.9375 -222.050781 143.34375 -218.75 C 157.75 -215.457031 169.378906 -211.082031 178.234375 -205.625 L 178.234375 -155.0625 L 121.734375 -155.0625 C 121.734375 -164.476562 115.894531 -169.1875 104.21875 -169.1875 C 98.570312 -169.1875 94.570312 -168.476562 92.21875 -167.0625 C 89.863281 -165.65625 88.6875 -163.164062 88.6875 -159.59375 C 88.6875 -156.382812 90.050781 -153.835938 92.78125 -151.953125 C 95.507812 -150.078125 99.984375 -148.101562 106.203125 -146.03125 L 130.78125 -137.546875 C 150.738281 -130.773438 165.28125 -121.972656 174.40625 -111.140625 C 183.539062 -100.316406 188.109375 -86.148438 188.109375 -68.640625 C 188.109375 -44.722656 180.054688 -26.644531 163.953125 -14.40625 C 147.859375 -2.164062 124.273438 3.953125 93.203125 3.953125 Z M 93.203125 3.953125 "/></g></g></g></svg>